<svg width="29" height="28" viewBox="0 0 29 28" fill="none" xmlns="http://www.w3.org/2000/svg">
<path d="M17.477 23.625H24.477C25.3419 23.625 26.0769 23.4299 26.6872 23.0899L17.477 17.5958V23.625ZM28.7032 20.2169C28.803 19.7719 28.8537 19.3007 28.8537 18.8121V16.6246H22.6806L28.7015 20.2169M1.00511 7.76956C0.9013 8.23501 0.849938 8.71062 0.851988 9.1875V11.375H7.04874L1.00511 7.76956ZM12.227 4.375H5.22699C4.36818 4.375 3.63799 4.5675 3.0303 4.90263L12.227 10.3889V4.375ZM3.0583 23.1114C3.6603 23.4369 4.38086 23.625 5.22699 23.625H12.227V17.6418L3.0583 23.1114ZM0.851988 16.625V18.8125C0.851988 19.3161 0.905363 19.8013 1.0108 20.2576L7.10036 16.625H0.851988ZM26.7148 4.92406C26.0997 4.57494 25.3546 4.375 24.477 4.375H17.477V10.4348L26.7148 4.92406ZM28.852 11.375V9.1875C28.852 8.70888 28.8025 8.24731 28.7067 7.81069L22.7322 11.375H28.852Z" fill="#2E3192"/>
<path d="M22.7322 11.375L28.7067 7.81069C28.4329 6.55769 27.7661 5.52038 26.7148 4.92406L17.477 10.4348V4.375H16.602V12.25H28.852V11.375H22.7322ZM0.85199 15.75V16.625H7.10036L1.0108 20.2576C1.29999 21.5066 1.98686 22.5321 3.0583 23.1114L12.227 17.6418V23.625H13.102V15.75H0.85199ZM28.852 15.75H16.602V23.625H17.477V17.5958L26.6872 23.0904C27.7464 22.5006 28.4215 21.469 28.7015 20.2178L22.6806 16.625H28.852V15.75ZM12.227 4.375V10.3889L3.0303 4.90263C1.96718 5.48888 1.28774 6.51875 1.00468 7.76956L7.04874 11.375H0.85199V12.25H13.102V4.375H12.227Z" fill="#E6E7E8"/>
<path d="M16.602 12.25V4.375H13.102V12.25H0.85199V15.75H13.102V23.625H16.602V15.75H28.852V12.25H16.602Z" fill="#BE1E2D"/>
<path d="M10.4499 11.375L1.67801 6.13852C1.48945 6.41852 1.33808 6.72652 1.21295 7.05465L8.45226 11.375H10.4486M28.4539 21.0393L21.0982 16.625H19.0612L27.9481 21.9708C28.1537 21.6825 28.3235 21.3703 28.4539 21.0411M27.4166 5.42102L17.4635 11.375L19.4843 11.3763L28.0728 6.23433C27.8812 5.88565 27.6791 5.66077 27.4166 5.42102ZM1.6452 21.8203C1.84202 22.12 2.07886 22.3914 2.34914 22.627L12.2546 16.625H10.2583L1.6452 21.8203Z" fill="#BE1E2D"/>
</svg>
