<svg width="24" height="23" viewBox="0 0 24 23" fill="none" xmlns="http://www.w3.org/2000/svg">
<path fill-rule="evenodd" clip-rule="evenodd" d="M11.2174 3.09643C11.6496 2.66419 12.3504 2.66419 12.7827 3.09643L20.5306 10.8443C20.8471 11.1609 20.9418 11.6369 20.7705 12.0505C20.5992 12.4641 20.1956 12.7338 19.7479 12.7338H18.6411L18.6411 19.3749C18.6411 19.9862 18.1455 20.4817 17.5342 20.4817H15.3206C14.7093 20.4817 14.2137 19.9862 14.2137 19.3749V16.0543C14.2137 15.4431 13.7182 14.9475 13.1069 14.9475H10.8932C10.2819 14.9475 9.78634 15.4431 9.78634 16.0543L9.78634 19.3749C9.78634 19.9862 9.29079 20.4817 8.6795 20.4817L6.46582 20.4817C5.85453 20.4817 5.35898 19.9862 5.35898 19.3749L5.35898 12.7338H4.25214C3.80446 12.7338 3.40087 12.4641 3.22955 12.0505C3.05823 11.6369 3.15293 11.1609 3.46948 10.8443L11.2174 3.09643Z" fill="#231F20"/>
</svg>
