<svg width="24" height="20" viewBox="0 0 24 20" fill="none" xmlns="http://www.w3.org/2000/svg">
<path fill-rule="evenodd" clip-rule="evenodd" d="M3.9364 0.663628C3.58492 0.312156 3.01508 0.312156 2.6636 0.663628C2.31213 1.0151 2.31213 1.58495 2.6636 1.93642L20.0636 19.3364C20.4151 19.6879 20.9849 19.6879 21.3364 19.3364C21.6879 18.9849 21.6879 18.4151 21.3364 18.0636L19.2422 15.9694C21.0077 14.6313 22.3914 12.8158 23.2012 10.7151C23.3777 10.2573 23.3779 9.74955 23.2016 9.29157C21.4704 4.79263 17.1072 1.60002 11.9983 1.60002C9.93849 1.60002 7.99988 2.11901 6.30612 3.03335L3.9364 0.663628ZM9.30232 6.02955L10.6124 7.33964C11.0274 7.1227 11.4995 7.00002 12.0002 7.00002C13.6571 7.00002 15.0002 8.34317 15.0002 10C15.0002 10.5008 14.8775 10.9728 14.6606 11.3878L15.9709 12.6981C16.4944 11.9292 16.8004 11.0004 16.8004 10C16.8004 7.34906 14.6514 5.20002 12.0004 5.20002C11.0001 5.20002 10.0712 5.50604 9.30232 6.02955Z" fill="#94A3B8"/>
<path d="M12.8981 14.7162L15.9253 17.7435C14.6955 18.1689 13.375 18.4 12.0004 18.4C6.89157 18.4 2.52837 15.2074 0.797106 10.7085C0.62087 10.2505 0.621022 9.74279 0.797532 9.28492C1.38724 7.7552 2.2813 6.37671 3.40549 5.22365L7.28423 9.1024C7.22923 9.39319 7.20045 9.69324 7.20045 10C7.20045 12.651 9.34948 14.8 12.0004 14.8C12.3072 14.8 12.6073 14.7712 12.8981 14.7162Z" fill="#94A3B8"/>
</svg>
