<svg width="27" height="26" viewBox="0 0 27 26" fill="none" xmlns="http://www.w3.org/2000/svg">
<path fill-rule="evenodd" clip-rule="evenodd" d="M6.49213 6.6571L9.51463 3.6346C9.72047 3.42877 10.0671 3.42877 10.273 3.6346L13.2955 6.6571C13.6421 6.99293 13.4038 7.57793 12.9163 7.57793H10.9771V14.0888C10.9771 14.6846 10.4896 15.1721 9.8938 15.1721C9.29797 15.1721 8.81047 14.6846 8.81047 14.0888V7.57793H6.8713C6.3838 7.57793 6.14547 6.99293 6.49213 6.6571ZM17.4771 11.9221V18.4329H19.4271C19.9038 18.4329 20.153 19.0179 19.8063 19.3538L16.7838 22.3654C16.5671 22.5713 16.2313 22.5713 16.0146 22.3654L12.9921 19.3538C12.6455 19.0179 12.8838 18.4329 13.3713 18.4329H15.3105V11.9221C15.3105 11.3263 15.798 10.8388 16.3938 10.8388C16.9896 10.8388 17.4771 11.3263 17.4771 11.9221Z" fill="#CBD5E1"/>
</svg>
