<svg width="42" height="41" viewBox="0 0 42 41" fill="none" xmlns="http://www.w3.org/2000/svg">
<path d="M37.9091 20.6546C37.9091 29.9935 30.3389 37.5637 21 37.5637C11.6611 37.5637 4.09094 29.9935 4.09094 20.6546C4.09094 11.3157 11.6611 3.74548 21 3.74548V7.1273C17.7612 7.12767 14.6299 8.29014 12.1754 10.4034C9.72096 12.5167 8.1062 15.4405 7.62465 18.6434C7.1431 21.8463 7.82673 25.1156 9.55128 27.8572C11.2758 30.5988 13.9268 32.6306 17.0224 33.5833C20.118 34.5361 23.4527 34.3465 26.4203 33.0491C29.388 31.7517 31.7916 29.4325 33.1944 26.5132C34.5971 23.5938 34.9058 20.268 34.0644 17.1404C33.223 14.0127 31.2873 11.2907 28.6091 9.46921V13.8909H25.2273V3.74548H35.3728V7.1273H31.1455C33.2465 8.70142 34.9517 10.7436 36.1258 13.0917C37.2998 15.4398 37.9104 18.0293 37.9091 20.6546Z" fill="black"/>
</svg>
